<svg id="Layer_1" data-name="Layer 1" xmlns="http://www.w3.org/2000/svg" viewBox="0 0 1739 837.55"><defs><style>.cls-1{fill:#282828}.cls-2{fill:#e6e7e8}</style></defs><path class="cls-1" d="m903.26 414.8-.01 31.5 26.76-2.94 8.84-12.77-10.07-7-25.52-8.79zM835.77 413.97l-.01 31.4-36.16-5.55-3.37-13.33 39.54-12.52zM1462.5.07l.08 31.4-55.23 1.89 3.76-12.19L1462.5.07zM272.86.12l-.03 31.35 49.65 1.96 2.41-3.61L272.86.12z"/><path d="M0 836.62V609.06h86.6V715l575.96-269.63L86.6 175.74v114.73H0V54.11l835.76 391.26L0 836.62z"/><path d="M302.1 410.26h447.06v70.22H302.1z"/><path d="M236.32 338.07h86.6v214.59h-86.6zM1739 837.55 903.25 446.3 1739 55.04v227.57h-86.6V176.67L1076.45 446.3l575.95 269.63V609.56h86.6v227.99z"/><path d="M989.85 411.19h447.05v70.22H989.85z"/><path d="M1416.08 339h86.6v214.59h-86.6zM867.7 408.71 272.83 31.47h345.99v39.09H457.75L867.7 330.54l409.96-259.98h-161.74V31.47h346.66L867.7 408.71z"/><path d="M824.4 167.83H911v201.79h-86.6z"/><path d="M735.38 138.14h264.65v39.09H735.38z"/><path class="cls-2" d="M0 805.15V577.59h86.6v105.93l575.96-269.63L86.6 144.26V259H0V22.64l835.76 391.25L0 805.15z"/><path class="cls-2" d="M302.1 378.78h447.06V449H302.1z"/><path class="cls-2" d="M236.32 306.6h86.6v214.59h-86.6zM1739 806.08 903.25 414.83 1739 23.57v227.56h-86.6V145.2l-575.95 269.63 575.95 269.63V578.09h86.6v227.99z"/><path class="cls-2" d="M989.85 379.72h447.05v70.22H989.85z"/><path class="cls-2" d="M1416.08 307.53h86.6v214.59h-86.6zM867.7 377.24 272.83 0h345.99v39.09H457.75L867.7 299.06l409.96-259.97h-161.74V0h346.66L867.7 377.24z"/><path class="cls-2" d="M824.4 136.36H911v201.79h-86.6z"/><path class="cls-2" d="M735.38 106.67h264.65v39.09H735.38z"/></svg>